<svg width="558.399" height="99.854" viewBox="0 0 558.399 99.854" xmlns="http://www.w3.org/2000/svg">
<path d="M 35.5 73.501 L 26.5 73.501 L 26.5 21.501 L 35.2 21.501 L 35.2 30.201 Q 38 26.001 42.3 23.151 A 17.205 17.205 0 0 1 51.502 20.309 A 20.858 20.858 0 0 1 52.1 20.301 A 20.994 20.994 0 0 1 56.517 20.74 Q 59.503 21.383 61.785 22.964 A 13.128 13.128 0 0 1 62.25 23.301 A 15.751 15.751 0 0 1 67.698 30.99 A 19.154 19.154 0 0 1 67.8 31.301 Q 70.9 26.701 75.15 23.501 A 15.669 15.669 0 0 1 81.941 20.617 A 21.446 21.446 0 0 1 85.7 20.301 A 21.437 21.437 0 0 1 90.588 20.823 Q 94.174 21.663 96.663 23.852 A 12.994 12.994 0 0 1 98.35 25.651 A 18.992 18.992 0 0 1 101.761 32.923 Q 102.5 35.973 102.5 39.601 L 102.5 73.501 L 93.5 73.501 L 93.5 40.301 A 19.042 19.042 0 0 0 93.163 36.611 Q 92.727 34.406 91.728 32.662 A 10.982 10.982 0 0 0 91 31.551 A 7.974 7.974 0 0 0 85.187 28.255 A 10.678 10.678 0 0 0 84.1 28.201 A 11.926 11.926 0 0 0 77.341 30.328 A 15.996 15.996 0 0 0 75.75 31.551 Q 71.9 34.901 69 39.401 L 69 73.501 L 60 73.501 L 60 40.301 A 19.042 19.042 0 0 0 59.663 36.611 Q 59.227 34.406 58.228 32.662 A 10.982 10.982 0 0 0 57.5 31.551 A 7.974 7.974 0 0 0 51.687 28.255 A 10.678 10.678 0 0 0 50.6 28.201 A 12.02 12.02 0 0 0 44.281 30.029 A 16.244 16.244 0 0 0 42.3 31.451 Q 38.4 34.701 35.5 39.101 L 35.5 73.501 Z M 341.8 8.001 L 338.3 15.901 Q 334.1 13.601 329.75 12.101 A 27.36 27.36 0 0 0 323.651 10.78 A 34.225 34.225 0 0 0 320.1 10.601 A 20.13 20.13 0 0 0 312.613 11.971 A 18.919 18.919 0 0 0 308.9 13.951 A 20.295 20.295 0 0 0 303.576 19.369 A 27.457 27.457 0 0 0 301.15 23.801 A 31.614 31.614 0 0 0 299.104 30.532 Q 298.501 33.663 298.35 37.255 A 58.311 58.311 0 0 0 298.3 39.701 Q 298.3 47.01 300.268 52.464 A 26.036 26.036 0 0 0 300.9 54.051 A 24.18 24.18 0 0 0 303.832 59.097 A 19.102 19.102 0 0 0 308.1 63.201 A 17.93 17.93 0 0 0 317.909 66.387 A 21.993 21.993 0 0 0 318.7 66.401 A 22.762 22.762 0 0 0 324.297 65.737 A 18.835 18.835 0 0 0 328.65 64.051 A 40.361 40.361 0 0 0 331.652 62.267 Q 333.938 60.763 335.5 59.201 L 335.5 43.901 L 321 43.901 L 321 36.401 L 344.5 36.401 L 344.5 73.501 L 336.1 73.501 L 336.1 66.501 A 35.883 35.883 0 0 1 331.722 69.792 A 47.354 47.354 0 0 1 327.6 72.151 A 23.594 23.594 0 0 1 318.194 74.65 A 28.131 28.131 0 0 1 316.5 74.701 A 26.572 26.572 0 0 1 307.187 73.101 A 24.511 24.511 0 0 1 302.1 70.501 Q 295.8 66.301 292.2 58.551 A 37.529 37.529 0 0 1 289.292 48.98 A 51.837 51.837 0 0 1 288.6 40.301 A 56.301 56.301 0 0 1 289.435 30.383 A 42.572 42.572 0 0 1 292.4 20.551 A 32.73 32.73 0 0 1 298.184 11.603 A 29.455 29.455 0 0 1 303.35 7.151 Q 310.5 2.301 320.6 2.301 Q 327.1 2.301 332.2 3.901 Q 337.3 5.501 341.8 8.001 Z M 181.1 92.301 L 184.4 84.501 A 20.562 20.562 0 0 0 188.217 86.874 A 24.737 24.737 0 0 0 190 87.651 Q 192.759 88.728 196.559 88.877 A 31.788 31.788 0 0 0 197.8 88.901 A 21.701 21.701 0 0 0 202.321 88.458 Q 205.222 87.84 207.422 86.36 A 12.576 12.576 0 0 0 208.95 85.151 A 11.352 11.352 0 0 0 211.857 80.657 Q 213 77.557 213 73.201 L 213 66.801 Q 211 69.201 207.25 71.351 Q 203.5 73.501 198.3 73.501 Q 192.4 73.501 187.1 70.451 A 22.236 22.236 0 0 1 179.808 63.613 A 27.437 27.437 0 0 1 178.5 61.501 A 25.181 25.181 0 0 1 175.787 53.877 A 35.033 35.033 0 0 1 175.2 47.301 A 32.06 32.06 0 0 1 176.117 39.493 A 26.682 26.682 0 0 1 178.45 33.401 A 25.706 25.706 0 0 1 184.514 25.778 A 24.448 24.448 0 0 1 187.2 23.801 Q 192.7 20.301 199.3 20.301 A 22.366 22.366 0 0 1 204.12 20.802 A 18.715 18.715 0 0 1 207.3 21.801 A 25.705 25.705 0 0 1 211.128 23.769 A 20.998 20.998 0 0 1 213.5 25.501 L 213.5 21.501 L 221.7 21.501 L 221.7 72.301 Q 221.7 80.901 218.7 86.301 Q 215.7 91.701 210.35 94.201 A 25.811 25.811 0 0 1 203.746 96.222 A 35.243 35.243 0 0 1 197.8 96.701 Q 193.2 96.701 188.85 95.601 A 27.232 27.232 0 0 1 183.55 93.683 A 23.518 23.518 0 0 1 181.1 92.301 Z M 422.4 73.501 L 413.4 73.501 L 413.4 21.501 L 422.1 21.501 L 422.1 30.201 Q 424.9 26.001 429.25 23.151 A 17.316 17.316 0 0 1 436.356 20.526 A 22.629 22.629 0 0 1 439.6 20.301 A 23.225 23.225 0 0 1 444.665 20.818 Q 449.759 21.957 452.75 25.601 Q 456.875 30.626 457.088 38.709 A 33.764 33.764 0 0 1 457.1 39.601 L 457.1 73.501 L 448.1 73.501 L 448.1 40.601 A 19.265 19.265 0 0 0 447.758 36.86 Q 447.319 34.645 446.319 32.897 A 10.966 10.966 0 0 0 445.45 31.601 A 8.579 8.579 0 0 0 439.173 28.247 A 12.061 12.061 0 0 0 438.1 28.201 A 13.122 13.122 0 0 0 431.251 30.165 A 17.353 17.353 0 0 0 429.4 31.451 Q 425.3 34.701 422.4 39.101 L 422.4 73.501 Z M 279.3 51.201 L 242.9 51.201 A 24.088 24.088 0 0 0 244.039 56.226 Q 245.375 60.038 248 62.601 Q 252.2 66.701 259.1 66.701 Q 263.6 66.701 267.2 65.751 Q 270.8 64.801 274.1 63.301 L 276.2 71.001 A 40.77 40.77 0 0 1 271.865 72.627 A 51.863 51.863 0 0 1 268.1 73.651 A 38.914 38.914 0 0 1 263.008 74.47 A 52.025 52.025 0 0 1 258 74.701 A 28.318 28.318 0 0 1 250.254 73.695 A 21.108 21.108 0 0 1 240.25 67.551 A 23.521 23.521 0 0 1 235.045 58.011 Q 233.7 53.346 233.7 47.501 A 35.359 35.359 0 0 1 234.533 39.679 A 28.84 28.84 0 0 1 236.65 33.551 A 24.642 24.642 0 0 1 241.666 26.469 A 22.887 22.887 0 0 1 244.9 23.851 A 21.048 21.048 0 0 1 255.159 20.379 A 26.205 26.205 0 0 1 257.2 20.301 Q 264.7 20.301 269.65 23.551 Q 274.6 26.801 277.1 32.301 A 28.185 28.185 0 0 1 279.526 42.164 A 33.434 33.434 0 0 1 279.6 44.401 A 75.204 75.204 0 0 1 279.309 51.097 A 69.426 69.426 0 0 1 279.3 51.201 Z M 401.1 51.201 L 364.7 51.201 A 24.088 24.088 0 0 0 365.839 56.226 Q 367.175 60.038 369.8 62.601 Q 374 66.701 380.9 66.701 Q 385.4 66.701 389 65.751 Q 392.6 64.801 395.9 63.301 L 398 71.001 A 40.77 40.77 0 0 1 393.665 72.627 A 51.863 51.863 0 0 1 389.9 73.651 A 38.914 38.914 0 0 1 384.808 74.47 A 52.025 52.025 0 0 1 379.8 74.701 A 28.318 28.318 0 0 1 372.054 73.695 A 21.108 21.108 0 0 1 362.05 67.551 A 23.521 23.521 0 0 1 356.845 58.011 Q 355.5 53.346 355.5 47.501 A 35.359 35.359 0 0 1 356.333 39.679 A 28.84 28.84 0 0 1 358.45 33.551 A 24.642 24.642 0 0 1 363.466 26.469 A 22.887 22.887 0 0 1 366.7 23.851 A 21.048 21.048 0 0 1 376.959 20.379 A 26.205 26.205 0 0 1 379 20.301 Q 386.5 20.301 391.45 23.551 Q 396.4 26.801 398.9 32.301 A 28.185 28.185 0 0 1 401.326 42.164 A 33.434 33.434 0 0 1 401.4 44.401 A 75.204 75.204 0 0 1 401.109 51.097 A 69.426 69.426 0 0 1 401.1 51.201 Z M 539.7 51.201 L 503.3 51.201 A 24.088 24.088 0 0 0 504.439 56.226 Q 505.775 60.038 508.4 62.601 Q 512.6 66.701 519.5 66.701 Q 524 66.701 527.6 65.751 Q 531.2 64.801 534.5 63.301 L 536.6 71.001 A 40.77 40.77 0 0 1 532.265 72.627 A 51.863 51.863 0 0 1 528.5 73.651 A 38.914 38.914 0 0 1 523.408 74.47 A 52.025 52.025 0 0 1 518.4 74.701 A 28.318 28.318 0 0 1 510.654 73.695 A 21.108 21.108 0 0 1 500.65 67.551 A 23.521 23.521 0 0 1 495.445 58.011 Q 494.1 53.346 494.1 47.501 A 35.359 35.359 0 0 1 494.933 39.679 A 28.84 28.84 0 0 1 497.05 33.551 A 24.642 24.642 0 0 1 502.066 26.469 A 22.887 22.887 0 0 1 505.3 23.851 A 21.048 21.048 0 0 1 515.559 20.379 A 26.205 26.205 0 0 1 517.6 20.301 Q 525.1 20.301 530.05 23.551 Q 535 26.801 537.5 32.301 A 28.185 28.185 0 0 1 539.926 42.164 A 33.434 33.434 0 0 1 540 44.401 A 75.204 75.204 0 0 1 539.709 51.097 A 69.426 69.426 0 0 1 539.7 51.201 Z M 153.6 25.701 L 153.6 21.501 L 161.8 21.501 L 161.8 60.901 A 12.15 12.15 0 0 0 161.902 62.536 Q 162.234 64.97 163.65 65.851 Q 165.5 67.001 167.7 67.001 L 165.8 74.001 A 17.722 17.722 0 0 1 161.535 73.528 Q 155.898 72.128 154.303 66.581 A 13.59 13.59 0 0 1 154.2 66.201 A 21.307 21.307 0 0 1 151.09 69.627 A 28.498 28.498 0 0 1 147.95 72.051 Q 144 74.701 137.9 74.701 Q 131.4 74.701 126.1 71.401 A 22.947 22.947 0 0 1 118.687 63.874 A 27.923 27.923 0 0 1 117.65 62.051 A 27.228 27.228 0 0 1 115.02 54.108 A 36.644 36.644 0 0 1 114.5 47.801 A 33.142 33.142 0 0 1 115.497 39.532 A 27.968 27.968 0 0 1 117.65 33.801 Q 120.8 27.601 126.35 23.951 A 22.297 22.297 0 0 1 137.545 20.344 A 27.388 27.388 0 0 1 139.1 20.301 A 22.584 22.584 0 0 1 143.894 20.791 A 18.703 18.703 0 0 1 147.25 21.851 A 26.002 26.002 0 0 1 151.537 24.144 A 22.103 22.103 0 0 1 153.6 25.701 Z M 9.5 73.501 L 0 73.501 L 0 3.501 L 9.5 3.501 L 9.5 73.501 Z M 481.6 73.501 L 472.6 73.501 L 472.6 21.501 L 481.6 21.501 L 481.6 73.501 Z M 152.8 60.201 L 152.8 32.301 Q 150.1 30.401 146.85 29.251 Q 143.6 28.101 140 28.101 A 15.924 15.924 0 0 0 135.029 28.854 A 14.024 14.024 0 0 0 131.55 30.551 A 16.301 16.301 0 0 0 126.531 35.974 A 19.962 19.962 0 0 0 125.8 37.351 A 20.663 20.663 0 0 0 124.047 43.027 A 27.678 27.678 0 0 0 123.7 47.501 Q 123.7 53.101 125.8 57.451 A 17.602 17.602 0 0 0 128.906 61.997 A 15.697 15.697 0 0 0 131.6 64.251 Q 135.3 66.701 139.9 66.701 Q 143.7 66.701 147.1 64.851 Q 150.5 63.001 152.8 60.201 Z M 212.7 59.501 L 212.7 32.301 Q 210.534 30.726 207.497 29.441 A 36.018 36.018 0 0 0 207.4 29.401 A 16.249 16.249 0 0 0 203.596 28.349 A 22.135 22.135 0 0 0 200.2 28.101 Q 196.1 28.101 192.5 30.301 Q 188.9 32.501 186.65 36.651 Q 184.4 40.801 184.4 46.801 A 24.32 24.32 0 0 0 184.878 51.737 A 18.311 18.311 0 0 0 186.65 56.701 A 18.576 18.576 0 0 0 189.561 60.775 A 15.802 15.802 0 0 0 192.5 63.201 Q 196.1 65.501 200.3 65.501 A 15.276 15.276 0 0 0 204.878 64.832 A 13.606 13.606 0 0 0 207.5 63.701 A 20.855 20.855 0 0 0 210.481 61.685 A 16.309 16.309 0 0 0 212.7 59.501 Z M 242.8 43.901 L 271.3 43.901 A 24.355 24.355 0 0 0 270.896 39.315 Q 270.4 36.731 269.296 34.708 A 12.422 12.422 0 0 0 267.5 32.201 A 12.488 12.488 0 0 0 260.539 28.425 A 18.395 18.395 0 0 0 257 28.101 A 13.58 13.58 0 0 0 251.888 29.036 A 12.524 12.524 0 0 0 247.4 32.151 Q 243.6 36.201 242.8 43.901 Z M 364.6 43.901 L 393.1 43.901 A 24.355 24.355 0 0 0 392.696 39.315 Q 392.2 36.731 391.096 34.708 A 12.422 12.422 0 0 0 389.3 32.201 A 12.488 12.488 0 0 0 382.339 28.425 A 18.395 18.395 0 0 0 378.8 28.101 A 13.58 13.58 0 0 0 373.688 29.036 A 12.524 12.524 0 0 0 369.2 32.151 Q 365.4 36.201 364.6 43.901 Z M 503.2 43.901 L 531.7 43.901 A 24.355 24.355 0 0 0 531.296 39.315 Q 530.8 36.731 529.696 34.708 A 12.422 12.422 0 0 0 527.9 32.201 A 12.488 12.488 0 0 0 520.939 28.425 A 18.395 18.395 0 0 0 517.4 28.101 A 13.58 13.58 0 0 0 512.288 29.036 A 12.524 12.524 0 0 0 507.8 32.151 Q 504 36.201 503.2 43.901 Z M 472.737 10.789 A 5.973 5.973 0 0 0 477.1 12.601 A 8.175 8.175 0 0 0 478.596 12.47 A 5.647 5.647 0 0 0 481.7 10.851 Q 483.4 9.101 483.4 6.301 A 7.26 7.26 0 0 0 483.4 6.22 A 6.06 6.06 0 0 0 481.55 1.851 A 7.395 7.395 0 0 0 481.492 1.793 A 6.059 6.059 0 0 0 477.1 0.001 A 8.264 8.264 0 0 0 475.444 0.158 A 5.661 5.661 0 0 0 472.5 1.701 A 5.588 5.588 0 0 0 471.029 4.333 A 7.987 7.987 0 0 0 470.8 6.301 A 5.992 5.992 0 0 0 471.292 8.719 A 6.643 6.643 0 0 0 472.65 10.701 A 7.466 7.466 0 0 0 472.737 10.789 Z" vector-effect="non-scaling-stroke" fill="url(#paint0_linear_2164_2166)"/>
<g filter="url(#filter0_d_2164_2166)">
<path d="M31.4988 1.94103C31.5852 1.94103 31.6553 1.86815 31.6553 1.77825C31.6553 1.68836 31.5852 1.61548 31.4988 1.61548C31.4124 1.61548 31.3423 1.68836 31.3423 1.77825C31.3423 1.86815 31.4124 1.94103 31.4988 1.94103Z" fill="url(#paint1_linear_2164_2166)"/>
</g>
<g filter="url(#filter1_d_2164_2166)">
<path d="M5.68436 6.03804C5.90861 6.03804 6.09039 5.84898 6.09039 5.61576C6.09039 5.38254 5.90861 5.19348 5.68436 5.19348C5.46011 5.19348 5.27832 5.38254 5.27832 5.61576C5.27832 5.84898 5.46011 6.03804 5.68436 6.03804Z" fill="url(#paint2_linear_2164_2166)"/>
</g>
<g filter="url(#filter2_d_2164_2166)">
<path d="M1.50223 18.4063C1.72648 18.4063 1.90827 18.2173 1.90827 17.984C1.90827 17.7508 1.72648 17.5618 1.50223 17.5618C1.27798 17.5618 1.09619 17.7508 1.09619 17.984C1.09619 18.2173 1.27798 18.4063 1.50223 18.4063Z" fill="url(#paint3_linear_2164_2166)"/>
</g>
<g filter="url(#filter3_d_2164_2166)">
<path d="M25.5428 21.8016C25.767 21.8016 25.9488 21.6125 25.9488 21.3793C25.9488 21.1461 25.767 20.957 25.5428 20.957C25.3185 20.957 25.1367 21.1461 25.1367 21.3793C25.1367 21.6125 25.3185 21.8016 25.5428 21.8016Z" fill="url(#paint4_linear_2164_2166)"/>
</g>
<g filter="url(#filter4_d_2164_2166)">
<path d="M6.52761 14.6515C6.61405 14.6515 6.68412 14.5786 6.68412 14.4887C6.68412 14.3988 6.61405 14.3259 6.52761 14.3259C6.44117 14.3259 6.37109 14.3988 6.37109 14.4887C6.37109 14.5786 6.44117 14.6515 6.52761 14.6515Z" fill="url(#paint5_linear_2164_2166)"/>
</g>
<g filter="url(#filter5_d_2164_2166)">
<path d="M12.5243 1.51158C12.6601 1.51158 12.7702 1.39706 12.7702 1.25579C12.7702 1.11452 12.6601 1 12.5243 1C12.3884 1 12.2783 1.11452 12.2783 1.25579C12.2783 1.39706 12.3884 1.51158 12.5243 1.51158Z" fill="url(#paint6_linear_2164_2166)"/>
</g>
<g filter="url(#filter6_d_2164_2166)">
<path d="M3.22758 12.9061C3.14757 12.9187 3.07313 12.8679 3.04946 12.783C2.82758 12.0289 2.71089 11.9374 1.98526 11.965C1.90152 11.9675 1.8278 11.906 1.81574 11.8228C1.80352 11.7385 1.85569 11.6595 1.93609 11.6339C2.63013 11.4199 2.70486 11.3161 2.72206 10.5257C2.72411 10.438 2.77857 10.3669 2.85747 10.3545C2.93859 10.3417 3.01192 10.3929 3.03781 10.4773C3.2573 11.2306 3.37399 11.3221 4.09851 11.2946C4.18464 11.2929 4.25691 11.3525 4.26931 11.4379C4.28137 11.521 4.23141 11.5997 4.1488 11.6257C3.45397 11.8421 3.38019 11.9446 3.36521 12.7346C3.36111 12.8239 3.30537 12.894 3.22758 12.9061Z" fill="url(#paint7_linear_2164_2166)"/>
</g>
<path d="M16.6299 6.19353C16.4189 6.27642 16.2783 6.48608 16.2783 6.72008C16.2783 6.95408 16.4189 7.16364 16.6299 7.24653C18.3127 7.90318 19.6406 9.2842 20.2721 11.0344C20.3517 11.2537 20.5533 11.4001 20.7783 11.4001C21.0033 11.4001 21.2049 11.2537 21.2845 11.0344C21.916 9.2842 23.2439 7.90318 24.9267 7.24653C25.1377 7.16364 25.2783 6.95408 25.2783 6.72008C25.2783 6.48608 25.1377 6.27642 24.9267 6.19353C23.2439 5.53688 21.916 4.15583 21.2845 2.40566C21.2049 2.18629 21.0033 2.04004 20.7783 2.04004C20.5533 2.04004 20.3517 2.18629 20.2721 2.40566C19.6406 4.15583 18.3127 5.53688 16.6299 6.19353ZM10.8924 5.61342C10.7705 5.33553 10.5033 5.16008 10.2127 5.16008C9.92212 5.16008 9.65492 5.33553 9.53302 5.61342C7.93573 9.20006 5.16408 12.0815 1.71426 13.7401C1.44707 13.8667 1.27832 14.1446 1.27832 14.4517C1.27832 14.7589 1.44707 15.0318 1.71426 15.1586C5.16287 16.8151 7.93683 19.698 9.52832 23.2853C9.65022 23.5632 9.91742 23.7386 10.208 23.7386C10.4986 23.7386 10.7658 23.5632 10.8877 23.2853C12.4822 19.6948 15.254 16.8121 18.7064 15.1537C18.9736 15.0271 19.1424 14.7492 19.1424 14.4469C19.1424 14.1446 18.9736 13.8667 18.7064 13.7401C15.2572 12.0849 12.4852 9.19996 10.8924 5.61342ZM20.2721 18.0056C19.6406 19.7558 18.3127 21.1368 16.6299 21.7935C16.4189 21.8764 16.2783 22.0861 16.2783 22.3201C16.2783 22.5541 16.4189 22.7636 16.6299 22.8465C18.3127 23.5032 19.6406 24.8842 20.2721 26.6344C20.3517 26.8537 20.5533 27 20.7783 27C21.0033 27 21.2049 26.8537 21.2845 26.6344C21.916 24.8842 23.2439 23.5032 24.9267 22.8465C25.1377 22.7636 25.2783 22.5541 25.2783 22.3201C25.2783 22.0861 25.1377 21.8764 24.9267 21.7935C23.2439 21.1368 21.916 19.7558 21.2845 18.0056C21.2049 17.7863 21.0033 17.6401 20.7783 17.6401C20.5533 17.6401 20.3517 17.7863 20.2721 18.0056Z" fill="url(#paint8_linear_2164_2166)"/>
<path d="M12.9717 16.0857C5.80757 18.6733 0.343109 21.7987 0.766469 23.0665C1.18983 24.3342 7.34069 23.2643 14.5048 20.6767C21.6689 18.0891 27.1334 14.9637 26.71 13.696C26.2866 12.4282 20.1358 13.4981 12.9717 16.0857Z" stroke="url(#paint9_linear_2164_2166)" stroke-width="0.549291"/>
<g style="mix-blend-mode:screen" filter="url(#filter7_f_2164_2166)">
<path d="M12.9717 16.0855C5.80757 18.6731 0.34311 21.7985 0.76647 23.0662C1.18983 24.334 7.34069 23.2641 14.5048 20.6765C21.6689 18.0889 27.1334 14.9635 26.71 13.6957C26.2866 12.4279 20.1358 13.4979 12.9717 16.0855Z" stroke="url(#paint10_linear_2164_2166)" stroke-width="0.549291"/>
</g>
<g filter="url(#filter8_d_2164_2166)">
<path d="M23.872 7.36177C23.7616 7.34534 23.6827 7.24737 23.6838 7.12559C23.6787 6.03816 23.5595 5.86916 22.5907 5.60594C22.4792 5.57474 22.4053 5.46284 22.4211 5.34812C22.4372 5.23175 22.5363 5.14897 22.6522 5.14834C23.6504 5.15229 23.7888 5.046 24.1132 4.0094C24.1494 3.89443 24.2485 3.82298 24.3574 3.8392C24.4694 3.85589 24.5467 3.95363 24.5486 4.07593C24.551 5.16124 24.6701 5.33034 25.6374 5.59325C25.7518 5.62653 25.8245 5.735 25.8083 5.85294C25.7925 5.96765 25.6964 6.05096 25.5774 6.05116C24.5772 6.05012 24.4406 6.15496 24.1193 7.19204C24.0798 7.30821 23.9794 7.37778 23.872 7.36177Z" fill="url(#paint11_linear_2164_2166)"/>
</g>
<defs>
<filter id="filter0_d_2164_2166" x="31.0008" y="1.27399" width="0.99596" height="1.00853" filterUnits="userSpaceOnUse" color-interpolation-filters="sRGB">
<feFlood flood-opacity="0" result="BackgroundImageFix"/>
<feColorMatrix in="SourceAlpha" type="matrix" values="0 0 0 0 0 0 0 0 0 0 0 0 0 0 0 0 0 0 127 0" result="hardAlpha"/>
<feOffset/>
<feGaussianBlur stdDeviation="0.170743"/>
<feComposite in2="hardAlpha" operator="out"/>
<feColorMatrix type="matrix" values="0 0 0 0 0.592157 0 0 0 0 0.392157 0 0 0 0 1 0 0 0 1 0"/>
<feBlend mode="normal" in2="BackgroundImageFix" result="effect1_dropShadow_2164_2166"/>
<feBlend mode="normal" in="SourceGraphic" in2="effect1_dropShadow_2164_2166" result="shape"/>
</filter>
<filter id="filter1_d_2164_2166" x="4.39242" y="4.30758" width="2.58381" height="2.6164" filterUnits="userSpaceOnUse" color-interpolation-filters="sRGB">
<feFlood flood-opacity="0" result="BackgroundImageFix"/>
<feColorMatrix in="SourceAlpha" type="matrix" values="0 0 0 0 0 0 0 0 0 0 0 0 0 0 0 0 0 0 127 0" result="hardAlpha"/>
<feOffset/>
<feGaussianBlur stdDeviation="0.442949"/>
<feComposite in2="hardAlpha" operator="out"/>
<feColorMatrix type="matrix" values="0 0 0 0 0.592157 0 0 0 0 0.392157 0 0 0 0 1 0 0 0 1 0"/>
<feBlend mode="normal" in2="BackgroundImageFix" result="effect1_dropShadow_2164_2166"/>
<feBlend mode="normal" in="SourceGraphic" in2="effect1_dropShadow_2164_2166" result="shape"/>
</filter>
<filter id="filter2_d_2164_2166" x="0.210293" y="16.6759" width="2.58381" height="2.6164" filterUnits="userSpaceOnUse" color-interpolation-filters="sRGB">
<feFlood flood-opacity="0" result="BackgroundImageFix"/>
<feColorMatrix in="SourceAlpha" type="matrix" values="0 0 0 0 0 0 0 0 0 0 0 0 0 0 0 0 0 0 127 0" result="hardAlpha"/>
<feOffset/>
<feGaussianBlur stdDeviation="0.442949"/>
<feComposite in2="hardAlpha" operator="out"/>
<feColorMatrix type="matrix" values="0 0 0 0 0.592157 0 0 0 0 0.392157 0 0 0 0 1 0 0 0 1 0"/>
<feBlend mode="normal" in2="BackgroundImageFix" result="effect1_dropShadow_2164_2166"/>
<feBlend mode="normal" in="SourceGraphic" in2="effect1_dropShadow_2164_2166" result="shape"/>
</filter>
<filter id="filter3_d_2164_2166" x="24.2508" y="20.0711" width="2.58381" height="2.6164" filterUnits="userSpaceOnUse" color-interpolation-filters="sRGB">
<feFlood flood-opacity="0" result="BackgroundImageFix"/>
<feColorMatrix in="SourceAlpha" type="matrix" values="0 0 0 0 0 0 0 0 0 0 0 0 0 0 0 0 0 0 127 0" result="hardAlpha"/>
<feOffset/>
<feGaussianBlur stdDeviation="0.442949"/>
<feComposite in2="hardAlpha" operator="out"/>
<feColorMatrix type="matrix" values="0 0 0 0 0.592157 0 0 0 0 0.392157 0 0 0 0 1 0 0 0 1 0"/>
<feBlend mode="normal" in2="BackgroundImageFix" result="effect1_dropShadow_2164_2166"/>
<feBlend mode="normal" in="SourceGraphic" in2="effect1_dropShadow_2164_2166" result="shape"/>
</filter>
<filter id="filter4_d_2164_2166" x="6.02961" y="13.9844" width="0.99596" height="1.00853" filterUnits="userSpaceOnUse" color-interpolation-filters="sRGB">
<feFlood flood-opacity="0" result="BackgroundImageFix"/>
<feColorMatrix in="SourceAlpha" type="matrix" values="0 0 0 0 0 0 0 0 0 0 0 0 0 0 0 0 0 0 127 0" result="hardAlpha"/>
<feOffset/>
<feGaussianBlur stdDeviation="0.170743"/>
<feComposite in2="hardAlpha" operator="out"/>
<feColorMatrix type="matrix" values="0 0 0 0 0.592157 0 0 0 0 0.392157 0 0 0 0 1 0 0 0 1 0"/>
<feBlend mode="normal" in2="BackgroundImageFix" result="effect1_dropShadow_2164_2166"/>
<feBlend mode="normal" in="SourceGraphic" in2="effect1_dropShadow_2164_2166" result="shape"/>
</filter>
<filter id="filter5_d_2164_2166" x="11.7417" y="0.463378" width="1.56494" height="1.58484" filterUnits="userSpaceOnUse" color-interpolation-filters="sRGB">
<feFlood flood-opacity="0" result="BackgroundImageFix"/>
<feColorMatrix in="SourceAlpha" type="matrix" values="0 0 0 0 0 0 0 0 0 0 0 0 0 0 0 0 0 0 127 0" result="hardAlpha"/>
<feOffset/>
<feGaussianBlur stdDeviation="0.268311"/>
<feComposite in2="hardAlpha" operator="out"/>
<feColorMatrix type="matrix" values="0 0 0 0 0.592157 0 0 0 0 0.392157 0 0 0 0 1 0 0 0 1 0"/>
<feBlend mode="normal" in2="BackgroundImageFix" result="effect1_dropShadow_2164_2166"/>
<feBlend mode="normal" in="SourceGraphic" in2="effect1_dropShadow_2164_2166" result="shape"/>
</filter>
<filter id="filter6_d_2164_2166" x="0.732341" y="9.55252" width="4.62028" height="4.71879" filterUnits="userSpaceOnUse" color-interpolation-filters="sRGB">
<feFlood flood-opacity="0" result="BackgroundImageFix"/>
<feColorMatrix in="SourceAlpha" type="matrix" values="0 0 0 0 0 0 0 0 0 0 0 0 0 0 0 0 0 0 127 0" result="hardAlpha"/>
<feOffset dy="0.281606"/>
<feGaussianBlur stdDeviation="0.540812"/>
<feComposite in2="hardAlpha" operator="out"/>
<feColorMatrix type="matrix" values="0 0 0 0 0.220722 0 0 0 0 0.210451 0 0 0 0 0.241667 0 0 0 0.6 0"/>
<feBlend mode="normal" in2="BackgroundImageFix" result="effect1_dropShadow_2164_2166"/>
<feBlend mode="normal" in="SourceGraphic" in2="effect1_dropShadow_2164_2166" result="shape"/>
</filter>
<filter id="filter7_f_2164_2166" x="0.216313" y="12.6314" width="27.0439" height="11.4993" filterUnits="userSpaceOnUse" color-interpolation-filters="sRGB">
<feFlood flood-opacity="0" result="BackgroundImageFix"/>
<feBlend mode="normal" in="SourceGraphic" in2="BackgroundImageFix" result="shape"/>
<feGaussianBlur stdDeviation="0.127195" result="effect1_foregroundBlur_2164_2166"/>
</filter>
<filter id="filter8_d_2164_2166" x="20.2885" y="2.26113" width="7.65252" height="7.78802" filterUnits="userSpaceOnUse" color-interpolation-filters="sRGB">
<feFlood flood-opacity="0" result="BackgroundImageFix"/>
<feColorMatrix in="SourceAlpha" type="matrix" values="0 0 0 0 0 0 0 0 0 0 0 0 0 0 0 0 0 0 127 0" result="hardAlpha"/>
<feOffset dy="0.554677"/>
<feGaussianBlur stdDeviation="1.06523"/>
<feComposite in2="hardAlpha" operator="out"/>
<feColorMatrix type="matrix" values="0 0 0 0 0.296824 0 0 0 0 0.244184 0 0 0 0 0.404167 0 0 0 0.6 0"/>
<feBlend mode="normal" in2="BackgroundImageFix" result="effect1_dropShadow_2164_2166"/>
<feBlend mode="normal" in="SourceGraphic" in2="effect1_dropShadow_2164_2166" result="shape"/>
</filter>
<linearGradient id="paint0_linear_2164_2166" x1="32.2786" y1="-4.2" x2="45.1138" y2="53.2524" gradientUnits="userSpaceOnUse">
<stop stop-color="#868CFF"/>
<stop offset="1" stop-color="#4318FF"/>
</linearGradient>
<linearGradient id="paint1_linear_2164_2166" x1="31.3515" y1="1.76142" x2="31.6627" y2="1.7677" gradientUnits="userSpaceOnUse">
<stop stop-color="#26A4FF"/>
<stop offset="1" stop-color="#0D9AFF"/>
</linearGradient>
<linearGradient id="paint2_linear_2164_2166" x1="5.30238" y1="5.57208" x2="6.10973" y2="5.58843" gradientUnits="userSpaceOnUse">
<stop stop-color="#26A4FF"/>
<stop offset="1" stop-color="#0D9AFF"/>
</linearGradient>
<linearGradient id="paint3_linear_2164_2166" x1="1.12025" y1="17.9404" x2="1.92761" y2="17.9566" gradientUnits="userSpaceOnUse">
<stop stop-color="#26A4FF"/>
<stop offset="1" stop-color="#0D9AFF"/>
</linearGradient>
<linearGradient id="paint4_linear_2164_2166" x1="25.1609" y1="21.3356" x2="25.9682" y2="21.352" gradientUnits="userSpaceOnUse">
<stop stop-color="#26A4FF"/>
<stop offset="1" stop-color="#0D9AFF"/>
</linearGradient>
<linearGradient id="paint5_linear_2164_2166" x1="6.38037" y1="14.472" x2="6.69158" y2="14.4782" gradientUnits="userSpaceOnUse">
<stop stop-color="#26A4FF"/>
<stop offset="1" stop-color="#0D9AFF"/>
</linearGradient>
<linearGradient id="paint6_linear_2164_2166" x1="12.2929" y1="1.22933" x2="12.7819" y2="1.23921" gradientUnits="userSpaceOnUse">
<stop stop-color="#26A4FF"/>
<stop offset="1" stop-color="#0D9AFF"/>
</linearGradient>
<linearGradient id="paint7_linear_2164_2166" x1="4.17747" y1="11.3173" x2="1.74065" y2="11.7212" gradientUnits="userSpaceOnUse">
<stop stop-color="#26A4FF"/>
<stop offset="1" stop-color="#0D9AFF"/>
</linearGradient>
<linearGradient id="paint8_linear_2164_2166" x1="1.27832" y1="2.04004" x2="26.2191" y2="26.0216" gradientUnits="userSpaceOnUse">
<stop stop-color="#868CFF"/>
<stop offset="1" stop-color="#4318FF"/>
</linearGradient>
<linearGradient id="paint9_linear_2164_2166" x1="1.18252" y1="24.8028" x2="0.114127" y2="21.7888" gradientUnits="userSpaceOnUse">
<stop stop-color="#3F5FFF"/>
<stop offset="1" stop-color="#3F5FFF" stop-opacity="0"/>
</linearGradient>
<linearGradient id="paint10_linear_2164_2166" x1="1.18252" y1="24.8025" x2="0.114127" y2="21.7886" gradientUnits="userSpaceOnUse">
<stop stop-color="#1DA0FF"/>
<stop offset="1" stop-color="#199FFF" stop-opacity="0.13"/>
</linearGradient>
<linearGradient id="paint11_linear_2164_2166" x1="25.733" y1="5.65576" x2="22.3517" y2="5.25926" gradientUnits="userSpaceOnUse">
<stop stop-color="#26A4FF"/>
<stop offset="1" stop-color="#0D9AFF"/>
</linearGradient>
</defs>
</svg>
